<svg width="25" height="25" viewBox="0 0 25 25" fill="none" xmlns="http://www.w3.org/2000/svg">
<path d="M15.7872 12.5C15.7872 10.7649 20.5 5.2328 25 0.345905L24.6541 0C19.7672 4.50003 14.2351 9.21279 12.5 9.21279C10.7649 9.21279 5.2328 4.50003 0.345905 0L0 0.345905C4.50003 5.2328 9.21279 10.7649 9.21279 12.5C9.21279 14.2351 4.50003 19.7672 0 24.6541L0.345905 25C5.2328 20.5 10.7649 15.7872 12.5 15.7872C14.2351 15.7872 19.7672 20.5 24.6541 25L25 24.6541C20.5 19.7672 15.7872 14.2351 15.7872 12.5Z" fill="white"/>
</svg>
