<svg width="35" height="40" viewBox="0 0 35 40" fill="none" xmlns="http://www.w3.org/2000/svg">
<path d="M10.0722 1.89818C13.2222 3.06484 15.8667 6.64262 16.3722 12.6315H16.6056L16.9944 4.19262C15.7111 2.67595 13.1833 0.964844 9.37222 0.964844C3.26667 0.964844 0 6.48707 0 12.126C0 19.3982 2.56667 26.3982 6.80556 31.1815H7.89444C12.6 31.1815 17.2278 26.6315 17.8889 19.2815H17.6556C16.2167 26.9037 11.9778 28.1093 9.41111 28.4204C6.18333 23.9871 4.31667 18.3093 4.31667 13.3315C4.31667 7.18707 6.02778 3.95929 10.0722 1.89818ZM28.1556 29.4315L26.2111 30.5204V30.7537H34.5722V30.5204L32.6278 29.4315V2.75373L35 1.43151V1.19818H20.0667V1.43151L22.5167 2.75373C22.4778 10.9204 22.3611 17.0648 21.9333 21.6926C20.9222 32.1537 18.8611 34.6815 16.7222 34.6815C15.1278 34.6815 13.7667 33.3982 12.4444 31.9204L12.2111 32.1537L17.9667 39.2315C19.1333 38.0648 20.7278 35.6148 21.7 32.076C23.0222 27.176 23.5278 19.0482 23.8389 2.09262H28.1556V29.4315Z" fill="black"/>
</svg>
