<svg width="40" height="50" viewBox="0 0 40 50" fill="none" xmlns="http://www.w3.org/2000/svg">
<path d="M40 24.0803L15.6606 0L15 0.69181C23.5944 10.4656 32.5952 21.5301 32.5952 25.0003C32.5952 28.4705 23.5944 39.5344 15 49.3082L15.6606 50L40 25.9203V24.0803Z" fill="black"/>
<path d="M21 24.4482L6.39638 10L6 10.4151C11.1567 16.2794 16.5571 22.9181 16.5571 25.0002C16.5571 27.0823 11.1567 33.7206 6 39.5849L6.39638 40L21 25.5522V24.4482Z" fill="black"/>
<path d="M8 24.7057L0.211403 17L0 17.2214C2.75022 20.349 5.63046 23.8896 5.63046 25.0001C5.63046 26.1106 2.75022 29.651 0 32.7786L0.211403 33L8 25.2945V24.7057Z" fill="black"/>
</svg>
