<svg width="31" height="31" viewBox="0 0 31 31" fill="none" xmlns="http://www.w3.org/2000/svg">
<path d="M19.7934 15.582C19.7934 13.4714 25.526 6.74213 30.9998 0.797712L30.5791 0.376953C24.6347 5.85079 17.9054 11.5834 15.7948 11.5834C13.6843 11.5834 6.95502 5.85079 1.0106 0.376953L0.589844 0.797712C6.06368 6.74213 11.7963 13.4714 11.7963 15.582C11.7963 17.6925 6.06368 24.4218 0.589844 30.3662L1.0106 30.787C6.95502 25.3131 13.6843 19.5805 15.7948 19.5805C17.9054 19.5805 24.6347 25.3131 30.5791 30.787L30.9998 30.3662C25.526 24.4218 19.7934 17.6925 19.7934 15.582Z" fill="black"/>
</svg>
